<svg id="Layer_1" enable-background="new 0 0 68 68" height="512" viewBox="0 0 68 68" width="512" fill="rgb(215,184,92)" xmlns="http://www.w3.org/2000/svg"><g><path d="m45.7601318 31.5321655c1.8300781 0 3.8100586-.8099976 5.7397461-2.3400269.0600586-.0499878.1298828-.0999756.1904297-.1599731-1.0800781-2.0599976-1.6801758-4.3800049-1.6601563-7.0200195 1.25-.5800171 2.1098633-1.8399658 2.1098633-3.3099976 0-2.0200195-1.6298828-3.6499634-3.6401367-3.6499634-2.0200195 0-3.659668 1.6299438-3.659668 3.6499634 0 1.2999878.6796875 2.4400024 1.699707 3.0800171-.7998047 2.4199829-2.7998047 4.7999878-5.5297852 7.1300049.0097656.039978.0400391.0700073.0600586.0999756 1.1499025 1.6000366 2.7397462 2.5200195 4.6899415 2.5200195z"/><path d="m17.9801025 22.012146c.0200195 2.5700073-.5500488 4.8300171-1.5800781 6.8500366.0800781.0699463.1501465.1399536.2299805.1999512 1.9799805 1.6199951 4.0200195 2.4800415 5.9001465 2.4800415.4299316 0 .8496094-.0500488 1.25-.1400146 1.3198242-.2999878 2.4399414-1.0599976 3.3496094-2.2700195.0102539-.0199585.0302734-.039978.0400391-.0599976-2.8198242-2.3999634-4.8896484-4.8300171-5.7097168-7.289978 1.0200195-.6400146 1.6999512-1.7800293 1.6999512-3.0800171 0-2.0200195-1.6401367-3.6499634-3.6599121-3.6499634-2.0100098 0-3.6401367 1.6299438-3.6401367 3.6499634-.0000001 1.4700317.870117 2.7399902 2.120117 3.3099975z"/><path d="m62.039917 15.0521851c-2.1899414 0-3.9599609 1.7699585-3.9599609 3.9599609 0 1.1199951.4599609 2.1300049 1.2099609 2.8599854-1.6201172 3.7300415-3.949707 6.8300171-6.5498047 8.8900146-2.7700195 2.2000122-5.8300781 3.210022-8.6601563 2.5900269-1.8999023-.4299927-3.4599609-1.5400391-4.6298828-3.1700439-1.4799805-2.0499878-2.3500977-4.9099731-2.4599609-8.1799927 1.2797852-.9199829 2.1098633-2.4299927 2.1098633-4.1300049 0-2.8199463-2.2900391-5.1099854-5.1098633-5.1099854-2.8203125 0-5.0898438 2.2900391-5.0898438 5.1099854 0 1.8300171.949707 3.4300537 2.3896484 4.3300171-.1298828 3.2600098-1.0200195 6.1099854-2.5600586 8.1300049-1.1499023 1.539978-2.6699219 2.6099854-4.5097656 3.0200195-2.8901367.6499634-6.0400391-.4400024-8.8601074-2.75-2.5598145-2.1100464-4.8498535-5.2200317-6.4399414-8.9500122.619873-.7000122 1-1.6300049 1-2.6400146 0-2.1900024-1.7800293-3.9599609-3.9699707-3.9599609s-3.9499512 1.7699585-3.9499512 3.9599609c0 1.8200073 1.2099609 3.3500366 2.869873 3.8200073l8.3000488 24.6799927h41.6501465l8.3095703-24.6900024c1.6503906-.4699707 2.8701172-2 2.8701172-3.8099976.0000001-2.1900025-1.779785-3.959961-3.9599608-3.959961z"/><path d="m9.371 49.513h49.257v5.725h-49.257z"/></g></svg>