<?xml version="1.0" encoding="UTF-8" standalone="no"?>
<!-- Created with Inkscape (http://www.inkscape.org/) -->

<svg
   version="1.1"
   id="svg2"
   xml:space="preserve"
   width="299.30667"
   height="113.74667"
   viewBox="0 0 299.30667 113.74667"
   sodipodi:docname="allen-edmonds-logo.eps"
   xmlns:inkscape="http://www.inkscape.org/namespaces/inkscape"
   xmlns:sodipodi="http://sodipodi.sourceforge.net/DTD/sodipodi-0.dtd"
   xmlns="http://www.w3.org/2000/svg"
   xmlns:svg="http://www.w3.org/2000/svg"><defs
     id="defs6" /><sodipodi:namedview
     id="namedview4"
     pagecolor="#ffffff"
     bordercolor="#666666"
     borderopacity="1.0"
     inkscape:pageshadow="2"
     inkscape:pageopacity="0.0"
     inkscape:pagecheckerboard="0" /><g
     id="g8"
     inkscape:groupmode="layer"
     inkscape:label="ink_ext_XXXXXX"
     transform="matrix(1.3333333,0,0,-1.3333333,0,113.74667)"><g
       id="g10"
       transform="scale(0.1)"><path
         d="m 991.172,490.027 c -10.027,-8.894 -19.824,-18.093 -30.195,-26.589 -6.243,-5.079 -8.418,-10.008 -7.012,-18.543 11.269,-68.555 21.711,-137.239 32.93,-205.801 0.898,-5.508 4.882,-11.281 8.984,-15.371 8.261,-8.235 17.581,-15.383 29.211,-25.325 -49.348,0 -94.652,0 -139.961,0 -0.52,0.801 -1.035,1.59 -1.555,2.395 9.121,7.84 17.832,16.266 27.512,23.367 8.582,6.278 11.199,13.274 9.512,23.809 -7.825,48.64 -14.973,97.375 -22.414,146.054 -0.223,1.407 -1.172,2.704 -3.184,7.161 -30.234,-75.508 -57.512,-149.426 -86.406,-222.414 -12.781,-1.915 -12.879,-1.961 -17.969,10.418 -27.355,66.664 -54.656,133.351 -82.008,200.023 -2.679,6.531 -5.504,13.008 -8.262,19.512 -1.101,-0.129 -2.214,-0.246 -3.32,-0.371 -9.305,-57.344 -18.613,-114.692 -28.043,-172.7 16.235,-11.734 32.082,-23.211 48.473,-35.066 -11.828,-4.07 -87.973,-4.426 -103.356,-0.402 8.528,8.625 16.161,16.972 24.485,24.574 6.094,5.562 9.32,12.039 10.594,20.047 10.656,67.07 21.183,134.16 32.453,201.133 1.625,9.66 -0.75,15.441 -8.047,21.152 -9.254,7.258 -17.731,15.488 -27.317,23.973 12.641,3.39 71.766,4.164 94.149,1.503 25.746,-71.902 51.742,-144.48 79.015,-220.664 30.286,75.864 59.219,148.332 88.301,221.164 28.028,0 55.188,0 82.348,0 0.359,-1.007 0.711,-2.019 1.082,-3.039"
         style="fill:#231f20;fill-opacity:1;fill-rule:evenodd;stroke:none"
         id="path12" /><path
         d="m 1774.73,851.953 c 33.76,0 67.52,0 105.24,0 -8.02,-7.238 -13.06,-13.086 -19.26,-17.125 -17.43,-11.332 -22.11,-26.594 -21.73,-47.246 1.33,-70.516 0.52,-141.094 0.52,-211.641 0,-5.628 0,-11.253 0,-18.988 -17.91,0 -34.83,-0.512 -51.66,0.41 -3.5,0.196 -7.17,5.356 -9.98,8.852 -33.17,41.226 -66.18,82.562 -99.23,123.883 -18.15,22.683 -36.25,45.39 -54.45,68.043 -3.11,3.886 -6.53,7.527 -11.59,13.336 -0.44,-7.043 -0.93,-11.442 -0.94,-15.832 -0.06,-49.278 0.3,-98.567 -0.31,-147.836 -0.12,-10.621 3.28,-17.262 11.76,-23.114 11.01,-7.59 21.21,-16.351 32.22,-24.968 -11.21,-3.774 -84.43,-4.493 -103.74,-0.926 10.78,9.707 20.36,18.89 30.57,27.301 6.22,5.105 8.39,10.789 8.35,18.769 -0.29,61.734 -0.28,123.469 0,185.192 0.04,7.875 -2.46,13.781 -7.31,19.64 -10.84,13.086 -21.19,26.563 -33.31,41.875 6.78,0.52 11.12,1.121 15.47,1.141 18.15,0.113 36.34,-0.649 54.45,0.312 10.68,0.571 17.01,-3.699 23.31,-11.625 53.89,-67.816 108.1,-135.375 162.26,-202.988 3.09,-3.852 6.5,-7.457 11.7,-13.402 0.41,7.441 0.86,11.855 0.86,16.261 0.05,53.442 -0.25,106.868 0.29,160.293 0.11,10.028 -2.94,16.379 -11.01,21.961 -11.66,8.094 -22.58,17.254 -33.82,25.961 0.45,0.821 0.89,1.641 1.34,2.461"
         style="fill:#231f20;fill-opacity:1;fill-rule:evenodd;stroke:none"
         id="path14" /><path
         d="m 1576.58,491.633 c 31.81,0 63.64,0 98,0 -4.97,-5.449 -7.8,-9.863 -11.76,-12.649 -19.88,-13.964 -23.98,-32.851 -23.46,-56.425 1.52,-68.957 0.55,-137.981 0.55,-206.985 0,-5.625 0,-11.238 0,-18.965 -17.6,0 -34.03,-0.64 -50.35,0.442 -4.01,0.273 -8.22,5.691 -11.33,9.551 -35.45,44.05 -70.69,88.261 -106,132.421 -18.79,23.477 -37.59,46.934 -57.93,72.325 -0.92,-5.285 -1.94,-8.457 -1.95,-11.641 -0.1,-51.355 0.15,-102.715 -0.27,-154.07 -0.07,-8.828 2.89,-14.387 9.84,-19.36 11.74,-8.394 22.9,-17.593 34.87,-26.902 -11.68,-3.711 -69.03,-4.746 -103.47,-2.129 2.33,7.774 8.78,11.902 14.26,15.457 19.5,12.688 24.47,29.824 23.72,52.649 -1.72,52.851 -0.87,105.82 -0.31,158.718 0.13,12.207 -2.92,21.809 -11.12,30.871 -9.92,10.977 -18.58,23.106 -30.15,37.735 10.07,0 16.57,0 23.07,0 16.59,0 33.22,-0.41 49.79,0.168 8.66,0.301 14.22,-2.68 19.62,-9.485 44.48,-56.093 89.34,-111.882 134.09,-167.754 12.95,-16.164 25.93,-32.304 40.51,-50.476 0.85,5.43 1.77,8.594 1.77,11.758 0.1,55.515 -0.14,111.035 0.27,166.531 0.07,8.855 -2.98,14.324 -9.9,19.309 -11.6,8.347 -22.59,17.554 -33.85,26.394 0.5,0.84 1,1.68 1.49,2.512"
         style="fill:#231f20;fill-opacity:1;fill-rule:evenodd;stroke:none"
         id="path16" /><path
         d="m 478.023,852.215 c 24.805,0 47.497,0 71.364,0 39.843,-97.629 79.707,-195.305 120.207,-294.57 -40.606,0 -79.184,0 -118.129,0 -3.86,6.089 -1.074,10.136 4.187,13.82 9.743,6.789 19.325,13.812 30.407,21.781 -26.516,63.164 -52.875,125.953 -80.649,192.133 -16.148,-38.957 -30.879,-74.52 -46.5,-112.195 24.039,0 45.988,0 68.27,0 2.918,-7.34 5.34,-13.399 8.617,-21.602 -29.742,0 -57.395,0 -85.793,0 -8.09,-19.695 -15.723,-38.266 -23.844,-58.027 15.805,-11.43 31.164,-22.543 46.926,-33.942 -11.184,-3.656 -83.926,-4.347 -103.356,-0.875 8.473,8.758 16.571,16.457 23.825,24.879 4.976,5.762 10.023,12.024 12.925,18.942 27.797,66.445 55.04,133.121 82.739,199.597 3.199,7.672 3.922,14.344 0.152,22.028 -4.234,8.656 -7.301,17.882 -11.348,28.031"
         style="fill:#231f20;fill-opacity:1;fill-rule:evenodd;stroke:none"
         id="path18" /><path
         d="m 106.848,355.715 c 17.64,0 32.605,-0.481 47.504,0.332 3.863,0.215 8.265,3.789 11.109,6.98 9.273,10.469 17.914,21.493 26.879,32.246 2.156,2.598 4.59,4.961 8.82,9.493 0,-39.786 0,-76.641 0,-117.371 -9.836,11.668 -18.57,20.242 -25.152,30.222 -9.797,14.871 -21.922,22.031 -40.094,19.153 -8.543,-1.348 -17.476,-0.239 -28.254,-0.239 0,-46.66 0,-92.437 0,-139.16 -36.0194,0 -70.0467,0 -105.71469,0 2.51563,2.91 4.28516,5.625 6.66407,7.602 8.76952,7.273 17.43362,14.746 26.72652,21.316 6.7305,4.758 8.7891,10.481 8.7618,18.445 -0.2344,66.36 -0.3008,132.715 0.0586,199.075 0.0546,9.394 -3.3594,15.363 -10.6016,20.722 -10.5938,7.84 -20.5625,16.524 -33.5547,27.102 37.6367,0 71.4492,0 106.848,0 0,-44.856 0,-89.231 0,-135.918"
         style="fill:#231f20;fill-opacity:1;fill-rule:evenodd;stroke:none"
         id="path20" /><path
         d="m 1247.89,851.883 c 33.89,0 67.78,0 103.38,0 0,-45.223 0,-89.61 0,-136 17.54,0 33.44,-0.387 49.28,0.316 3.32,0.149 7.05,3.813 9.59,6.727 9.2,10.57 17.92,21.547 26.92,32.293 2.19,2.629 4.7,4.992 8.77,9.242 0,-39.438 0,-76.438 0,-115.184 -3.17,2.641 -5.99,4.391 -8.03,6.793 -9.05,10.688 -18.13,21.387 -26.71,32.45 -4.51,5.796 -9.45,8.722 -17.06,8.414 -13.39,-0.532 -26.81,-0.149 -41.82,-0.149 0,-46.722 0,-92.176 0,-137.156 -12.93,-3.734 -89.39,-4.125 -106.22,-0.566 11.73,9.394 22.28,18.308 33.35,26.523 6.39,4.73 9.14,9.898 9.1,18.184 -0.37,66.953 -0.34,133.921 -0.05,200.878 0.04,8.079 -2.19,13.536 -8.81,18.348 -11.25,8.203 -21.84,17.32 -32.71,26.055 0.34,0.949 0.67,1.89 1.02,2.832"
         style="fill:#231f20;fill-opacity:1;fill-rule:evenodd;stroke:none"
         id="path22" /><path
         d="m 2113.7,491.121 c -6.07,-5.391 -8.98,-7.586 -11.42,-10.223 -24.46,-26.328 -20.65,-65.214 9.14,-85.175 10.22,-6.836 22.06,-11.348 33.42,-16.328 18.03,-7.911 36.78,-14.317 54.27,-23.223 21.55,-10.957 38.05,-27.52 43.22,-52.207 11.89,-56.758 -20.35,-98.211 -74.46,-109.668 -6.34,-1.336 -8.1,2.488 -9.49,8.086 3.18,2.441 6.47,4.844 9.62,7.39 28.27,22.922 27.53,63.047 -2.58,83.657 -12.26,8.406 -26.5,14.011 -40.08,20.398 -13.6,6.387 -27.96,11.277 -41.11,18.457 -11.27,6.153 -22.41,13.438 -31.64,22.274 -25.71,24.629 -29.19,55.461 -19,87.699 10.07,31.922 35.63,47.176 66.54,54.469 3.11,0.734 7.23,-2.848 13.57,-5.606"
         style="fill:#231f20;fill-opacity:1;fill-rule:evenodd;stroke:none"
         id="path24" /><path
         d="m 973.586,559.578 c 10.711,8.649 21.187,17.59 32.194,25.836 6.35,4.758 9.15,9.938 9.1,18.207 -0.36,67.402 -0.3,134.801 -0.06,202.199 0.02,7.504 -2.34,12.481 -8.32,16.969 -11.395,8.574 -22.254,17.879 -35.992,29.024 55.022,0 106.362,0 157.682,0 0.44,-0.719 0.89,-1.434 1.33,-2.149 -10.88,-7.379 -21.31,-15.555 -32.73,-21.937 -13.14,-7.329 -17.91,-16.598 -17.69,-32.247 1.03,-73.082 0.45,-146.203 0.45,-219.296 0,-5.653 0,-11.289 0,-19.125 -35.61,-0.86 -70.31,-0.223 -105.964,2.519"
         style="fill:#231f20;fill-opacity:1;fill-rule:evenodd;stroke:none"
         id="path26" /><path
         d="m 701.688,851.996 c 50.988,0 101.972,0 156.386,0 -8.699,-7.992 -16.726,-12.269 -23.933,-17.519 -8.77,-6.372 -20.828,-10.938 -25.481,-19.528 -4.617,-8.539 -2.168,-21.101 -2.195,-31.902 -0.11,-68.984 -0.059,-137.957 -0.059,-206.938 0,-5.671 0,-11.343 0,-16.746 -11.797,-3.316 -77.367,-4.3 -106.316,-1.605 5.691,7.941 12.758,13.254 19.781,17.262 19.098,10.902 23.43,26.511 22.902,47.75 -1.468,59.085 -0.765,118.242 -0.285,177.363 0.094,10.855 -2.523,18.523 -11.687,24.847 -10.586,7.309 -20.235,15.981 -30.297,24.059 0.387,0.988 0.789,1.965 1.184,2.957"
         style="fill:#231f20;fill-opacity:1;fill-rule:evenodd;stroke:none"
         id="path28" /><path
         d="m 435.648,197.676 c 0,4.883 0,8.887 0,13.094 3.04,0.918 5.442,1.867 7.938,2.367 33.98,6.785 56.352,27.801 69.5,58.718 20.019,47.079 20.273,95.059 1.602,142.461 -13.106,33.262 -36.563,56.231 -72.848,63.829 -1.969,0.418 -3.844,1.281 -6.25,2.097 0,3.625 0,7.071 0,11.555 42.258,3.516 80.93,-3.836 114.383,-30.684 49.324,-39.59 66.254,-111.425 41.605,-172.468 -21.219,-52.551 -77.687,-93.821 -155.93,-90.969"
         style="fill:#231f20;fill-opacity:1;fill-rule:evenodd;stroke:none"
         id="path30" /><path
         d="m 301.012,197.434 c 13.414,10.867 23.847,19.961 34.972,28.101 6.977,5.102 9.704,10.813 9.661,19.531 -0.329,66.387 -0.313,132.766 -0.016,199.153 0.035,8.562 -2.449,14.636 -9.113,19.992 -9.676,7.781 -18.688,16.363 -28.164,24.766 9.199,4.468 70.316,5.894 101.828,2.312 0.008,-97.41 0.031,-195.105 -0.012,-293.855 -35.875,0 -70.398,0 -109.156,0"
         style="fill:#231f20;fill-opacity:1;fill-rule:evenodd;stroke:none"
         id="path32" /><path
         d="m 1821.82,480.164 c 0,3.789 0,7.207 0,11.777 55.57,3.977 104.12,-9.109 137.82,-55.449 36.45,-50.113 40.73,-105.144 12.23,-159.949 -30.69,-59.023 -85.24,-77.766 -149.33,-80.344 -0.54,5.024 -1.02,9.278 -1.57,14.262 4.36,1.258 7.7,2.461 11.13,3.191 28.32,5.918 49.38,22.293 62.07,47.539 27.57,54.903 27.78,110.899 0.75,166.028 -12.92,26.336 -34.54,43.633 -63.85,50.183 -2.97,0.657 -5.86,1.739 -9.25,2.762"
         style="fill:#231f20;fill-opacity:1;fill-rule:evenodd;stroke:none"
         id="path34" /><path
         d="m 1695.97,491.777 c 32.92,0 65.85,0 99.6,0 0,-98.191 0,-195.507 0,-292.773 -10.76,-3.234 -84.44,-4.031 -107.25,-0.75 11.74,9.422 21.65,18.172 32.39,25.738 8.49,5.981 11.63,12.942 11.55,23.403 -0.44,64.824 -0.43,129.644 0,194.468 0.06,10.356 -2.88,17.602 -11.01,23.907 -9.31,7.199 -17.76,15.507 -26.57,23.351 0.43,0.879 0.86,1.77 1.29,2.656"
         style="fill:#231f20;fill-opacity:1;fill-rule:evenodd;stroke:none"
         id="path36" /><path
         d="m 1193.32,193.254 c 2.93,5.633 3.9,10.945 6.95,12.762 30.98,18.586 44.46,48.254 51.88,81.464 9.79,43.731 9.09,87.415 -3.74,130.567 -8.18,27.551 -21.66,51.484 -47.44,66.68 -4.9,2.902 -4.66,3.32 -4.62,14.543 7.66,-0.872 15.33,-1.047 22.67,-2.7 57.87,-13.023 99.56,-58.074 109.38,-117.808 6.31,-38.34 2.91,-75.5 -14.83,-110.5 -21.12,-41.68 -55.51,-65.899 -101.05,-74.805 -3.03,-0.598 -6.16,-0.812 -9.26,-0.957 -2.01,-0.09 -4.03,0.281 -9.94,0.754"
         style="fill:#231f20;fill-opacity:1;fill-rule:evenodd;stroke:none"
         id="path38" /><path
         d="m 1166.03,499.727 c 3.78,-8.293 1.87,-12.493 -4.13,-15.95 -23.42,-13.504 -36.43,-35.222 -44.36,-59.929 -16.68,-51.895 -16.73,-104.207 -0.05,-156.114 7.94,-24.699 20.87,-46.464 44.31,-59.953 5.98,-3.433 7.86,-7.652 4.58,-15.468 -5.63,0.539 -11.76,0.578 -17.65,1.757 -58.56,11.821 -101.35,55.735 -112.39,115.246 -6.59,35.52 -4.82,70.547 9.58,103.875 22.56,52.27 63.04,80.422 120.11,86.536"
         style="fill:#231f20;fill-opacity:1;fill-rule:evenodd;stroke:none"
         id="path40" /><path
         d="m 267.777,285.098 c -3.297,-31.211 -6.238,-59.141 -9.277,-87.825 -42.227,0 -82.996,0 -124.18,0 -5.148,8.118 0.368,11.567 6.586,15.122 29.254,16.726 58.418,33.621 87.641,50.398 11.996,6.902 24.07,13.691 39.23,22.305"
         style="fill:#231f20;fill-opacity:1;fill-rule:evenodd;stroke:none"
         id="path42" /><path
         d="m 1502.92,557.484 c -42.36,0 -83.54,0 -124.64,0 -4.41,8.454 1.42,11.399 6.86,14.528 20.18,11.605 40.35,23.207 60.53,34.804 17.04,9.789 34.06,19.618 51.14,29.352 4.38,2.492 8.93,4.687 15.59,8.156 -3.31,-30.226 -6.35,-58.176 -9.48,-86.84"
         style="fill:#231f20;fill-opacity:1;fill-rule:evenodd;stroke:none"
         id="path44" /><path
         d="m 1378.09,851.898 c 39.01,0 78.26,0 119.69,0 2.99,-26.835 5.98,-53.855 9.2,-82.777 -4.81,1.84 -8.1,2.625 -10.91,4.246 -36.48,20.836 -72.88,41.774 -109.28,62.738 -5.67,3.27 -13.01,5.735 -8.7,15.793"
         style="fill:#231f20;fill-opacity:1;fill-rule:evenodd;stroke:none"
         id="path46" /><path
         d="m 950.52,648.98 c 0.242,-1.23 0.886,-2.64 0.75,-3.98 -2.872,-28.809 -5.848,-57.605 -8.899,-87.34 -37.273,0 -73.808,0 -113.008,0 2.446,5.031 3.242,10.094 6.172,12.18 37.512,26.746 75.324,53.086 113.086,79.476 0.305,0.204 0.996,-0.16 1.899,-0.336"
         style="fill:#231f20;fill-opacity:1;fill-rule:evenodd;stroke:none"
         id="path48" /><path
         d="m 1224.98,652.543 c -3.31,-33.777 -6.22,-63.52 -9.11,-93.035 -11.25,-3.508 -83.63,-4.567 -109.81,-1.766 -4.55,7.403 0.53,11.051 5.77,14.738 20.69,14.606 41.36,29.243 62.04,43.872 15.94,11.277 31.86,22.566 51.11,36.191"
         style="fill:#231f20;fill-opacity:1;fill-rule:evenodd;stroke:none"
         id="path50" /><path
         d="m 133.793,491.758 c 39.289,0 78.848,0 119.691,0 2.93,-27.278 5.77,-53.789 8.825,-82.344 -4.754,1.856 -7.973,2.664 -10.75,4.258 -36.364,20.762 -72.653,41.633 -108.946,62.519 -5.683,3.274 -13.078,5.606 -8.82,15.567"
         style="fill:#231f20;fill-opacity:1;fill-rule:evenodd;stroke:none"
         id="path52" /><path
         d="m 2138.98,190.898 c -49,-0.82 -86.94,15.286 -117.99,45.579 16.43,17.664 32.21,34.636 49.63,53.367 22.76,-32.949 44.59,-64.539 68.36,-98.946"
         style="fill:#231f20;fill-opacity:1;fill-rule:evenodd;stroke:none"
         id="path54" /><path
         d="m 2235.93,463.816 c -15.88,-16.48 -30.91,-32.078 -45.86,-47.593 -9.47,6.707 -53.47,64.988 -62.47,82.351 21.2,8.66 84.63,-11.347 108.33,-34.758"
         style="fill:#231f20;fill-opacity:1;fill-rule:evenodd;stroke:none"
         id="path56" /><path
         d="m 967.355,3.45703 c -6.234,0 -11.234,0 -17.199,0 -5.027,17.07027 -9.968,33.81637 -14.922,50.56637 -0.82,0.1758 -1.64,0.3399 -2.468,0.5196 -5.207,-16.9649 -10.411,-33.9063 -15.676,-51.05862 -5.84,0 -10.86,0 -16.895,0 -6.738,24.14452 -13.371,47.91012 -20.312,72.79292 5.078,0.4493 8.984,0.8008 14.121,1.2422 4.726,-17.832 9.297,-35.1367 13.867,-52.4297 0.899,-0.1015 1.809,-0.1953 2.703,-0.2929 5.227,17.2344 10.461,34.4726 15.793,52.0195 4.883,0 8.926,0 14.485,0 5.144,-16.6601 10.41,-33.6719 15.664,-50.6953 1.043,-0.1445 2.089,-0.293 3.125,-0.4453 1.531,5.5547 3.132,11.082 4.57,16.6601 2.184,8.5157 4.707,16.9805 6.258,25.6133 1.582,8.8086 6.308,10.9297 16.113,8.2227 C 981.926,51.4531 973.391,27.9492 967.355,3.45703"
         style="fill:#231f20;fill-opacity:1;fill-rule:evenodd;stroke:none"
         id="path58" /><path
         d="m 1473.04,56.3398 c -3.96,-0.9492 -7.85,-1.8984 -11.46,-2.7656 -12.57,14.3477 -21.84,17.5196 -33.78,11.8946 -11.25,-5.3125 -16.82,-19.2071 -13.36,-33.3399 3.17,-12.9297 11.69,-19.9492 24.18,-19.9414 11.89,0 17.91,4.8906 22.08,19.6602 -6.08,0 -11.57,-0.293 -17.02,0.0664 -6.99,0.457 -6.56,4.9492 -4.66,10.6132 11.16,0 22.41,0 34.87,0 0,-13.0351 0,-25.6718 0,-40.93355 -5.05,2.56641 -8.96,4.56641 -13.73,6.99219 -23.56,-13.46875 -46.96,-9.36719 -57.19,11.12106 -10.57,21.1914 -2.54,47.336 17.22,56.0469 21.92,9.6563 45.67,1.2774 52.85,-19.4141"
         style="fill:#231f20;fill-opacity:1;fill-rule:evenodd;stroke:none"
         id="path60" /><path
         d="m 707.184,65.3711 c 0,-8.7227 0,-15.1445 0,-21.8945 8.75,0 16.464,-0.6172 24.027,0.1953 5.754,0.625 8.773,5.1758 8.629,11.0547 -0.137,5.8984 -3.285,10.0703 -9.215,10.5078 -7.539,0.5586 -15.156,0.1367 -23.441,0.1367 z m -15.922,12.0508 c 14.566,0 26.426,0.1562 38.285,-0.0508 11.016,-0.1836 20.547,-3.3164 24.641,-14.9609 3.679,-10.4688 0.519,-18.1329 -11.079,-27.7305 -0.773,-0.6484 -1.324,-1.5547 -2.296,-2.7266 4.929,-8.7383 9.957,-17.6172 15.093,-26.71091 -13.754,-3.27735 -13.761,-3.27735 -20.07,6.90621 -1.633,2.6368 -3.203,5.3125 -4.82,7.9571 -7.559,12.3672 -7.571,12.3672 -24.317,9.2812 -0.371,-7.9336 -0.761,-16.0664 -1.207,-25.31639 -4.097,-0.41015 -7.879,-0.76953 -13.988,-1.375 -0.637,25.00779 -0.234,48.90629 -0.242,74.72659"
         style="fill:#231f20;fill-opacity:1;fill-rule:evenodd;stroke:none"
         id="path62" /><path
         d="m 630.875,67.7344 c -14.961,0.2148 -25.059,-10.7813 -25.187,-27.4219 -0.122,-16.8047 9.527,-27.7539 24.582,-27.9023 15.027,-0.1446 25.273,10.8593 25.421,27.2851 0.149,16.3125 -10.043,27.8242 -24.816,28.0391 z M 590.359,40.7617 c 0.293,23.8281 16.657,39.336 40.981,38.8555 C 655.543,79.1484 671.387,62.9961 671,39.2109 670.613,15.6641 653.84,-0.214844 629.805,0.242188 605.609,0.691406 590.059,16.6797 590.359,40.7617"
         style="fill:#231f20;fill-opacity:1;fill-rule:evenodd;stroke:none"
         id="path64" /><path
         d="m 1627.68,40.3438 c -0.18,16.6367 -10.3,27.6171 -25.28,27.3984 -14.85,-0.2149 -24.82,-11.5703 -24.65,-28.1016 0.15,-16.5429 10.27,-27.414 25.37,-27.2304 15.03,0.1796 24.74,11.2109 24.56,27.9336 z m 15.44,-0.3555 c 0,-23.6797 -16.3,-39.722675 -40.38,-39.746112 -24.01,-0.015625 -40.41,16.125012 -40.38,39.769512 0.01,23.8438 16.05,39.5781 40.4,39.6055 24.25,0.0312 40.36,-15.8008 40.36,-39.6289"
         style="fill:#231f20;fill-opacity:1;fill-rule:evenodd;stroke:none"
         id="path66" /><path
         d="m 1675.56,52.6289 c 0,-15.8437 0,-31.6836 0,-48.52734 -4.58,-0.36328 -7.85,-0.61718 -12.26,-0.96484 0,24.89058 0,48.96488 0,72.80078 10.48,3.8672 17.03,0.5156 22.68,-8.1641 9.02,-13.8671 19.1,-27.0586 29.88,-42.1367 4.12,9.1094 2.03,17.1758 2.37,24.8516 0.35,8.2031 0.08,16.4453 0.08,25.7422 4.41,0.3515 7.7,0.6054 12.08,0.9375 0,-24.9219 0,-48.9922 0,-72.75394 -10.21,-4.093747 -16.1,-0.28125 -21.44,7.62894 -9.5,14.1172 -19.85,27.6523 -29.85,41.4336 -1.18,-0.2852 -2.37,-0.5547 -3.54,-0.8477"
         style="fill:#231f20;fill-opacity:1;fill-rule:evenodd;stroke:none"
         id="path68" /><path
         d="m 1377.6,4.14063 c -10.13,-3.464849 -16.26,-0.11719 -21.62,7.94917 -9.41,14.1602 -19.8,27.668 -32.62,40.9297 0,-16.0859 0,-32.1679 0,-49.12497 -5.24,0 -8.51,0 -12.67,0 0,24.41407 0,48.49997 0,72.20707 11.02,4.0039 17.21,-0.4961 22.7,-8.8555 9.06,-13.7617 18.99,-26.9336 30.11,-42.5586 4.44,18.5156 0.09,34.9531 3.16,51.6914 3.46,0 6.73,0 10.94,0 0,-24.375 0,-48.4492 0,-72.23827"
         style="fill:#231f20;fill-opacity:1;fill-rule:evenodd;stroke:none"
         id="path70" /><path
         d="m 1148.19,61.3477 c -3.66,-2.3633 -6.18,-3.9961 -7.37,-4.7539 -8.71,4.1875 -16.07,8.4335 -23.95,11.1796 -3.51,1.211 -8.66,0.4414 -11.97,-1.3867 -3.02,-1.6797 -5.94,-5.8594 -6.31,-9.2187 -0.24,-2.2969 3.54,-6.1719 6.36,-7.3555 4.68,-1.9531 10.02,-2.2617 15.08,-3.3359 5.04,-1.0664 10.31,-1.5821 15.06,-3.418 14.46,-5.5781 17.97,-23.4102 7.04,-34.15235 -16.49,-16.22266 -51.6,-9.335938 -62.25,12.95705 2.9,1.6719 5.87,3.3711 9.84,5.6484 6.68,-9.1914 14.71,-16.2344 26.75,-15.3047 3.56,0.2657 7.56,0.3516 10.43,2.0703 2.71,1.6133 6,5.4415 5.76,7.9688 -0.32,3.3281 -3.21,8.0273 -6.14,9.1602 -6.15,2.371 -13.04,2.7421 -19.62,4.0234 -16.86,3.2695 -23.92,9.668 -23.87,21.5742 0.05,12.2149 8.8,20.2813 25.37,21.9883 15.56,1.6133 29.93,-0.6992 39.79,-17.6445"
         style="fill:#231f20;fill-opacity:1;fill-rule:evenodd;stroke:none"
         id="path72" /><path
         d="m 1184.45,33.8789 c 0,-11.1133 0,-20.3164 0,-30.21874 -5.02,0 -8.86,0 -13.5,0 0,24.41404 0,48.01954 0,72.72654 4.22,0.3008 8.06,0.5781 13.38,0.9492 0,-10.0898 0,-19.2304 0,-29.6679 13.93,0 26.46,0 40.4,0 0.41,9.1875 0.82,18.3008 1.28,28.6015 3.99,0.2539 7.7,0.4883 12.39,0.7813 0,-24.7383 0,-48.3281 0,-72.66408 -1.96,-0.5 -3.82,-1.28125 -5.69,-1.37891 -1.91,-0.10937 -3.87,0.46875 -7,0.91016 0,9.67583 0,18.82423 0,28.51563 -13.75,3.5742 -26.35,1.7383 -41.26,1.4453"
         style="fill:#231f20;fill-opacity:1;fill-rule:evenodd;stroke:none"
         id="path74" /><path
         d="m 529.609,65.5078 c 0,-8.7969 0,-16.0937 0,-23.9375 7.954,0 14.668,-0.6523 21.204,0.1758 7.175,0.9102 11.847,6.6523 11.117,12.5898 -0.778,6.3086 -4.504,10.6055 -10.992,11.0625 -7.016,0.4922 -14.09,0.1094 -21.329,0.1094 z M 528.98,30.2813 c -0.464,-9.6055 -0.828,-17.2461 -1.265,-26.37505 -4.414,-0.25391 -8.594,-0.5 -13.66,-0.79297 0,25.00002 0,48.57422 0,73.69532 14.836,0 29.207,1.0625 43.34,-0.3164 12.933,-1.2656 20.628,-11.7578 20.05,-23.582 -0.59,-12.0704 -8.824,-20.5586 -21.882,-22.2071 -4.094,-0.5195 -8.266,-0.3515 -12.415,-0.3984 -4.07,-0.0703 -8.152,-0.0234 -14.168,-0.0234"
         style="fill:#231f20;fill-opacity:1;fill-rule:evenodd;stroke:none"
         id="path76" /><path
         d="m 1032.66,60.4102 c -1.18,0.2031 -2.35,0.4101 -3.52,0.625 -3.56,-9.3164 -7.14,-18.6329 -11.08,-28.9571 9.24,0 16.3,0 25.35,0 -3.93,10.3321 -7.35,19.3282 -10.75,28.3321 z m 37.73,-56.68754 c -5.43,-0.34375 -9.4,-0.59766 -13.94,-0.87891 -2.91,5.78906 -5.65,11.23825 -8.7,17.30075 -10.75,0 -21.49,0 -32.99,0 -7.23,-4.4687 -4.72,-23.84372 -23.088,-15.26169 10.058,23.65239 20.138,47.34379 30.558,71.84379 5.29,0.2656 10.28,0.5078 16.52,0.8242 10.49,-24.4531 20.82,-48.586 31.64,-73.82814"
         style="fill:#231f20;fill-opacity:1;fill-rule:evenodd;stroke:none"
         id="path78" /><path
         d="m 837.043,76.4648 c 0,-3.3593 0,-6.2109 0,-10.3046 -7.727,-0.4961 -15.258,-0.9844 -24.543,-1.6016 0,-20.0156 0,-39.8789 0,-60.67969 -5.598,0 -9.426,0 -15.137,0 0,19.88279 0,39.74219 0,60.65239 -7.285,0.332 -12.8,0.8125 -18.332,0.789 -7.554,-0.0273 -8.511,4.043 -6.582,11.1445 20.727,0 41.692,0 64.594,0"
         style="fill:#231f20;fill-opacity:1;fill-rule:evenodd;stroke:none"
         id="path80" /><path
         d="m 1552.93,76.582 c 0,-3.6445 0,-6.5429 0,-10.4492 -8.07,-0.5195 -15.6,-1.0156 -24.91,-1.6211 0,-20.2851 0,-40.1367 0,-60.80076 -5.62,0 -9.45,0 -15.07,0 0,20.44926 0,40.32036 0,60.78126 -9.23,0.625 -16.76,1.1211 -24.94,1.668 0,3.664 0,6.5742 0,10.4218 21.54,0 42.94,0 64.92,0"
         style="fill:#231f20;fill-opacity:1;fill-rule:evenodd;stroke:none"
         id="path82" /><path
         d="m 1281.91,3.72266 c -5.3,0 -9.17,0 -14,0 0,24.03124 0,47.66404 0,72.48824 3.92,0.4297 7.75,0.8399 13.99,1.5157 0.16,-25.0899 0.12,-49.1133 0.01,-74.00394"
         style="fill:#231f20;fill-opacity:1;fill-rule:evenodd;stroke:none"
         id="path84" /></g></g></svg>
